# Blender v2.80 (sub 55) OBJ File: 'box.blend'
# www.blender.org
mtllib box.mtl
o Cube_Cube.001
v 1.000000 -1.000000 1.000000
v -1.000000 -1.000000 1.000000
v 1.000000 -1.000000 -1.000000
v -1.000000 -1.000000 -1.000000
v 1.000000 1.000000 1.000000
v -1.000000 1.000000 1.000000
v 1.000000 1.000000 -1.000000
v -1.000000 1.000000 -1.000000
vt -0.000999 0.666667
vt -0.000999 0.333333
vt 0.249416 0.333333
vt 0.249416 0.666667
vt 0.499832 0.333333
vt 0.499832 0.666667
vt 0.750247 0.333333
vt 0.750247 0.666667
vt 1.000662 0.333333
vt 1.000662 0.666667
vt 0.499832 1.000000
vt 0.750247 1.000000
vt 0.499832 0.000000
vt 0.750247 0.000000
vn 0.0000 -1.0000 0.0000
vn 0.0000 0.0000 -1.0000
vn -0.0000 1.0000 0.0000
vn -0.0000 0.0000 1.0000
vn 1.0000 0.0000 0.0000
vn -1.0000 -0.0000 0.0000
usemtl Box
s off
f 1/1/1 2/2/1 4/3/1 3/4/1
f 3/4/2 4/3/2 8/5/2 7/6/2
f 7/6/3 8/5/3 6/7/3 5/8/3
f 5/8/4 6/7/4 2/9/4 1/10/4
f 3/11/5 7/6/5 5/8/5 1/12/5
f 8/5/6 4/13/6 2/14/6 6/7/6
